<svg width="26" height="25" viewBox="0 0 26 25" fill="none" xmlns="http://www.w3.org/2000/svg">
<path d="M12.8189 0C5.73921 0 0 5.59644 0 12.5C0 19.4036 5.73921 25 12.8189 25C19.8985 25 25.6378 19.4036 25.6378 12.5C25.6302 5.59953 19.8954 0.00737654 12.8189 0ZM18.2174 12.8983C18.1287 13.0719 17.9844 13.2126 17.8063 13.2991V13.3036L10.4813 16.875C10.0289 17.0954 9.47897 16.9166 9.25289 16.4754C9.18862 16.35 9.15551 16.2116 9.15632 16.0715V8.9286C9.1561 8.43547 9.56583 8.03557 10.0715 8.03531C10.2138 8.03525 10.3541 8.06748 10.4813 8.12948L17.8063 11.7009C18.2589 11.9209 18.443 12.4569 18.2174 12.8983Z" fill="#5671F6"/>
</svg>
